<svg width="17" height="17" viewBox="0 0 17 17" fill="none" xmlns="http://www.w3.org/2000/svg">
<path d="M3.64286 0C1.6317 0 0 1.42773 0 3.1875V13.8125C0 15.5723 1.6317 17 3.64286 17H14.5714H15.7857C16.4574 17 17 16.5252 17 15.9375C17 15.3498 16.4574 14.875 15.7857 14.875V12.75C16.4574 12.75 17 12.2752 17 11.6875V1.0625C17 0.474805 16.4574 0 15.7857 0H14.5714H3.64286ZM3.64286 12.75H13.3571V14.875H3.64286C2.97121 14.875 2.42857 14.4002 2.42857 13.8125C2.42857 13.2248 2.97121 12.75 3.64286 12.75ZM4.85714 4.78125C4.85714 4.48906 5.13036 4.25 5.46429 4.25H12.75C13.0839 4.25 13.3571 4.48906 13.3571 4.78125C13.3571 5.07344 13.0839 5.3125 12.75 5.3125H5.46429C5.13036 5.3125 4.85714 5.07344 4.85714 4.78125ZM5.46429 6.375H12.75C13.0839 6.375 13.3571 6.61406 13.3571 6.90625C13.3571 7.19844 13.0839 7.4375 12.75 7.4375H5.46429C5.13036 7.4375 4.85714 7.19844 4.85714 6.90625C4.85714 6.61406 5.13036 6.375 5.46429 6.375Z" fill="black"/>
</svg>
