<svg width="17" height="17" viewBox="0 0 17 17" fill="none" xmlns="http://www.w3.org/2000/svg">
<path d="M16.4654 5.53164C16.5717 5.82051 16.482 6.14258 16.2529 6.34844L14.8152 7.65664C14.8518 7.93223 14.8717 8.21445 14.8717 8.5C14.8717 8.78555 14.8518 9.06777 14.8152 9.34336L16.2529 10.6516C16.482 10.8574 16.5717 11.1795 16.4654 11.4684C16.3193 11.8635 16.1434 12.242 15.9408 12.6072L15.7848 12.8762C15.5656 13.2414 15.3199 13.5867 15.051 13.9121C14.8551 14.1512 14.5297 14.2309 14.2375 14.1379L12.3881 13.5502C11.9432 13.8922 11.4518 14.1777 10.9271 14.3936L10.5121 16.2895C10.4457 16.5916 10.2133 16.8307 9.90781 16.8805C9.44961 16.9568 8.97812 16.9967 8.49668 16.9967C8.01523 16.9967 7.54375 16.9568 7.08555 16.8805C6.78008 16.8307 6.54766 16.5916 6.48125 16.2895L6.06621 14.3936C5.5416 14.1777 5.05019 13.8922 4.60527 13.5502L2.75918 14.1412C2.46699 14.2342 2.1416 14.1512 1.9457 13.9154C1.67676 13.59 1.43105 13.2447 1.21191 12.8795L1.05586 12.6105C0.85332 12.2453 0.677343 11.8668 0.531249 11.4717C0.424999 11.1828 0.514648 10.8607 0.743749 10.6549L2.18144 9.34668C2.14492 9.06777 2.125 8.78555 2.125 8.5C2.125 8.21445 2.14492 7.93223 2.18144 7.65664L0.743749 6.34844C0.514648 6.14258 0.424999 5.82051 0.531249 5.53164C0.677343 5.13652 0.85332 4.75801 1.05586 4.39277L1.21191 4.12383C1.43105 3.75859 1.67676 3.41328 1.9457 3.08789C2.1416 2.84883 2.46699 2.76914 2.75918 2.86211L4.60859 3.4498C5.05351 3.10781 5.54492 2.82227 6.06953 2.60645L6.48457 0.710547C6.55098 0.408398 6.7834 0.169336 7.08887 0.119531C7.54707 0.0398437 8.01855 0 8.5 0C8.98144 0 9.45293 0.0398438 9.91113 0.116211C10.2166 0.166016 10.449 0.405078 10.5154 0.707227L10.9305 2.60313C11.4551 2.81895 11.9465 3.10449 12.3914 3.44648L14.2408 2.85879C14.533 2.76582 14.8584 2.84883 15.0543 3.08457C15.3232 3.40996 15.5689 3.75527 15.7881 4.12051L15.9441 4.38945C16.1467 4.75469 16.3227 5.1332 16.4688 5.52832L16.4654 5.53164ZM8.5 11.1562C9.20448 11.1562 9.88011 10.8764 10.3783 10.3783C10.8764 9.88011 11.1562 9.20448 11.1562 8.5C11.1562 7.79552 10.8764 7.11989 10.3783 6.62175C9.88011 6.1236 9.20448 5.84375 8.5 5.84375C7.79552 5.84375 7.11989 6.1236 6.62175 6.62175C6.1236 7.11989 5.84375 7.79552 5.84375 8.5C5.84375 9.20448 6.1236 9.88011 6.62175 10.3783C7.11989 10.8764 7.79552 11.1562 8.5 11.1562Z" fill="black"/>
</svg>
