<svg width="17" height="17" viewBox="0 0 17 17" fill="none" xmlns="http://www.w3.org/2000/svg">
<path d="M15.9375 1.0625C15.9375 0.634182 15.6785 0.245705 15.2801 0.0796896C14.8816 -0.086326 14.4268 0.00664272 14.1213 0.308791L12.6736 1.75977C11.0799 3.35352 8.91836 4.25 6.66387 4.25H6.375H5.3125H2.125C0.95293 4.25 0 5.20293 0 6.375V9.5625C0 10.7346 0.95293 11.6875 2.125 11.6875V15.9375C2.125 16.5252 2.5998 17 3.1875 17H5.3125C5.9002 17 6.375 16.5252 6.375 15.9375V11.6875H6.66387C8.91836 11.6875 11.0799 12.584 12.6736 14.1777L14.1213 15.6254C14.4268 15.9309 14.8816 16.0205 15.2801 15.8545C15.6785 15.6885 15.9375 15.3033 15.9375 14.8717V9.97422C16.5551 9.68203 17 8.89512 17 7.96875C17 7.04238 16.5551 6.25547 15.9375 5.96328V1.0625ZM13.8125 3.60918V7.96875V12.3283C11.8602 10.552 9.31348 9.5625 6.66387 9.5625H6.375V6.375H6.66387C9.31348 6.375 11.8602 5.38555 13.8125 3.60918Z" fill="black"/>
</svg>
