<svg width="17" height="17" viewBox="0 0 17 17" fill="none" xmlns="http://www.w3.org/2000/svg">
<path d="M11.5357 4.25C11.5357 3.54552 11.2159 2.86989 10.6466 2.37175C10.0773 1.8736 9.30512 1.59375 8.5 1.59375C7.69488 1.59375 6.92273 1.8736 6.35343 2.37175C5.78412 2.86989 5.46429 3.54552 5.46429 4.25C5.46429 4.95448 5.78412 5.63011 6.35343 6.12825C6.92273 6.6264 7.69488 6.90625 8.5 6.90625C9.30512 6.90625 10.0773 6.6264 10.6466 6.12825C11.2159 5.63011 11.5357 4.95448 11.5357 4.25ZM3.64286 4.25C3.64286 3.12283 4.15459 2.04183 5.06548 1.2448C5.97637 0.447767 7.21181 0 8.5 0C9.78819 0 11.0236 0.447767 11.9345 1.2448C12.8454 2.04183 13.3571 3.12283 13.3571 4.25C13.3571 5.37717 12.8454 6.45817 11.9345 7.2552C11.0236 8.05223 9.78819 8.5 8.5 8.5C7.21181 8.5 5.97637 8.05223 5.06548 7.2552C4.15459 6.45817 3.64286 5.37717 3.64286 4.25ZM1.87076 15.4062H15.1292C14.7915 13.3045 12.7272 11.6875 10.2342 11.6875H6.76585C4.27277 11.6875 2.20848 13.3045 1.87076 15.4062ZM0 16.0139C0 12.7434 3.02813 10.0938 6.76585 10.0938H10.2342C13.9719 10.0938 17 12.7434 17 16.0139C17 16.5584 16.4953 17 15.873 17H1.12701C0.504688 17 0 16.5584 0 16.0139Z" fill="white"/>
</svg>
