<svg width="17" height="15" viewBox="0 0 17 15" fill="none" xmlns="http://www.w3.org/2000/svg">
<path d="M3.1875 2.1875C3.1875 1.01543 4.14043 0.0625 5.3125 0.0625H14.875C16.0471 0.0625 17 1.01543 17 2.1875V12.8125C17 13.9846 16.0471 14.9375 14.875 14.9375H2.65625C1.18867 14.9375 0 13.7488 0 12.2812V3.25C0 2.6623 0.474805 2.1875 1.0625 2.1875C1.6502 2.1875 2.125 2.6623 2.125 3.25V12.2812C2.125 12.5734 2.36406 12.8125 2.65625 12.8125C2.94844 12.8125 3.1875 12.5734 3.1875 12.2812V2.1875ZM5.3125 2.98438V5.64062C5.3125 6.08223 5.66777 6.4375 6.10938 6.4375H9.82812C10.2697 6.4375 10.625 6.08223 10.625 5.64062V2.98438C10.625 2.54277 10.2697 2.1875 9.82812 2.1875H6.10938C5.66777 2.1875 5.3125 2.54277 5.3125 2.98438ZM12.2188 2.71875C12.2188 3.01094 12.4578 3.25 12.75 3.25H14.3438C14.6359 3.25 14.875 3.01094 14.875 2.71875C14.875 2.42656 14.6359 2.1875 14.3438 2.1875H12.75C12.4578 2.1875 12.2188 2.42656 12.2188 2.71875ZM12.2188 5.90625C12.2188 6.19844 12.4578 6.4375 12.75 6.4375H14.3438C14.6359 6.4375 14.875 6.19844 14.875 5.90625C14.875 5.61406 14.6359 5.375 14.3438 5.375H12.75C12.4578 5.375 12.2188 5.61406 12.2188 5.90625ZM5.3125 9.09375C5.3125 9.38594 5.55156 9.625 5.84375 9.625H14.3438C14.6359 9.625 14.875 9.38594 14.875 9.09375C14.875 8.80156 14.6359 8.5625 14.3438 8.5625H5.84375C5.55156 8.5625 5.3125 8.80156 5.3125 9.09375ZM5.3125 12.2812C5.3125 12.5734 5.55156 12.8125 5.84375 12.8125H14.3438C14.6359 12.8125 14.875 12.5734 14.875 12.2812C14.875 11.9891 14.6359 11.75 14.3438 11.75H5.84375C5.55156 11.75 5.3125 11.9891 5.3125 12.2812Z" fill="black"/>
</svg>
