<svg width="17" height="15" viewBox="0 0 17 15" fill="none" xmlns="http://www.w3.org/2000/svg">
<path d="M2.125 0.0625C0.95293 0.0625 0 1.01543 0 2.1875V12.8125C0 13.9846 0.95293 14.9375 2.125 14.9375H14.875C16.0471 14.9375 17 13.9846 17 12.8125V5.375C17 4.20293 16.0471 3.25 14.875 3.25H2.65625C2.36406 3.25 2.125 3.01094 2.125 2.71875C2.125 2.42656 2.36406 2.1875 2.65625 2.1875H14.875C15.4627 2.1875 15.9375 1.7127 15.9375 1.125C15.9375 0.537305 15.4627 0.0625 14.875 0.0625H2.125ZM13.8125 8.03125C14.0943 8.03125 14.3645 8.14319 14.5638 8.34245C14.7631 8.54171 14.875 8.81196 14.875 9.09375C14.875 9.37554 14.7631 9.64579 14.5638 9.84505C14.3645 10.0443 14.0943 10.1562 13.8125 10.1562C13.5307 10.1562 13.2605 10.0443 13.0612 9.84505C12.8619 9.64579 12.75 9.37554 12.75 9.09375C12.75 8.81196 12.8619 8.54171 13.0612 8.34245C13.2605 8.14319 13.5307 8.03125 13.8125 8.03125Z" fill="black"/>
</svg>
